# xmcd
#
# Track frame offsets:
#   150
#   12843
#   22855
#   43494
#   61890
#   79337
#   96875
#   112002
#   130061
#   155750
#   168110
#   182239
#
# Disc length: 2664 seconds
#
# Revision: 0
# Processed by: cddbd v1.4PL0 Copyright (c) Steve Scherf et al.
# Submitted via: uFREEDB 1.6.0
#
DISCID=990a660c
DTITLE=Varios Artistas - Exitos romanticos del Pop Vol 2
DYEAR=2000
DGENRE=Blues
TTITLE0=Please Mr. Postman
TTITLE1=Bye Bye love
TTITLE2=My way
TTITLE3=Parole parole
TTITLE4=All out of love
TTITLE5=Emotions
TTITLE6=Sunshine after the rain
TTITLE7=Caugh between goodbye and love you
TTITLE8=Careless whisper
TTITLE9=Crazy
TTITLE10=Tu etais trop jolie
TTITLE11=I´ll keep your dreams alive
EXTD=
EXTT0=
EXTT1=
EXTT2=
EXTT3=
EXTT4=
EXTT5=
EXTT6=
EXTT7=
EXTT8=
EXTT9=
EXTT10=
EXTT11=
PLAYORDER=
